<?xml version="1.0" encoding="UTF-8" standalone="no"?>
<!DOCTYPE svg PUBLIC "-//W3C//DTD SVG 1.1//EN" "http://www.w3.org/Graphics/SVG/1.1/DTD/svg11.dtd">
<svg width="100%" height="100%" viewBox="0 0 24 24" version="1.1" xmlns="http://www.w3.org/2000/svg" xmlns:xlink="http://www.w3.org/1999/xlink" xml:space="preserve" xmlns:serif="http://www.serif.com/" style="fill-rule:evenodd;clip-rule:evenodd;stroke-linejoin:round;stroke-miterlimit:2;">
    <path d="M7.125,8.625L6.375,8.625C4.856,8.625 3.625,9.856 3.625,11.375C3.625,11.375 3.625,17.5 3.625,17.5C3.625,19.019 4.856,20.25 6.375,20.25L18.625,20.25C20.144,20.25 21.375,19.019 21.375,17.5L21.375,11.375C21.375,9.856 20.144,8.625 18.625,8.625L17.875,8.625L17.875,6.125C17.875,4.699 17.309,3.332 16.301,2.324C15.293,1.316 13.926,0.75 12.5,0.75C11.074,0.75 9.707,1.316 8.699,2.324C8.699,2.324 8.699,2.324 8.699,2.324C7.691,3.332 7.125,4.699 7.125,6.125L7.125,8.625ZM18.625,10.625C19.039,10.625 19.375,10.961 19.375,11.375C19.375,11.375 19.375,17.5 19.375,17.5C19.375,17.914 19.039,18.25 18.625,18.25C18.625,18.25 6.375,18.25 6.375,18.25C5.961,18.25 5.625,17.914 5.625,17.5L5.625,11.375C5.625,10.961 5.961,10.625 6.375,10.625L18.625,10.625ZM15.875,8.625L15.875,6.125C15.875,5.23 15.519,4.371 14.887,3.739C14.254,3.106 13.395,2.75 12.5,2.75C11.605,2.75 10.746,3.106 10.113,3.739C9.481,4.371 9.125,5.23 9.125,6.125L9.125,8.625L15.875,8.625Z" style="fill:rgb(252,212,3);"/>
</svg>
