<svg width="24" height="24" viewBox="0 0 24 24" fill="none" xmlns="http://www.w3.org/2000/svg">
<path d="M11.625 4.875C9.14062 4.875 7.125 6.89062 7.125 9.375C7.125 11.8594 9.14062 13.875 11.625 13.875C14.1094 13.875 16.125 11.8594 16.125 9.375C16.125 6.89062 14.1094 4.875 11.625 4.875ZM11.625 11.625C10.3594 11.625 9.375 10.6406 9.375 9.375C9.375 8.15625 10.3594 7.125 11.625 7.125C12.8438 7.125 13.875 8.15625 13.875 9.375C13.875 10.6406 12.8438 11.625 11.625 11.625ZM11.625 0.375C5.20312 0.375 0 5.57812 0 12C0 18.4219 5.20312 23.625 11.625 23.625C18.0469 23.625 23.25 18.4219 23.25 12C23.25 5.57812 18.0469 0.375 11.625 0.375ZM11.625 21.375C9.28125 21.375 7.125 20.5312 5.48438 19.125C6.1875 18.0469 7.40625 17.2969 8.76562 17.2969C9.75 17.5781 10.6875 17.7188 11.625 17.7188C12.5156 17.7188 13.4531 17.5781 14.4375 17.2969C15.7969 17.3438 17.0156 18.0469 17.7188 19.125C16.0781 20.5312 13.9219 21.375 11.625 21.375ZM19.2188 17.4375C18.0938 15.9844 16.3125 15 14.2969 15C13.8281 15 13.0781 15.4688 11.625 15.4688C10.125 15.4688 9.375 15 8.90625 15C6.89062 15 5.10938 15.9844 3.98438 17.4375C2.85938 15.9375 2.25 14.0625 2.25 12C2.25 6.84375 6.42188 2.625 11.625 2.625C16.7812 2.625 21 6.84375 21 12C21 14.0625 20.3438 15.9375 19.2188 17.4375Z" fill="#FCD803"/>
</svg>
