<svg width="24" height="24"><path d="M11.625 4.875a4.501 4.501 0 000 9 4.501 4.501 0 000-9zm0 6.75a2.221 2.221 0 01-2.25-2.25 2.25 2.25 0 012.25-2.25c1.219 0 2.25 1.031 2.25 2.25a2.25 2.25 0 01-2.25 2.25zm0-11.25C5.203.375 0 5.578 0 12s5.203 11.625 11.625 11.625S23.25 18.422 23.25 12 18.047.375 11.625.375zm0 21c-2.344 0-4.5-.844-6.14-2.25.702-1.078 1.921-1.828 3.28-1.828a10.32 10.32 0 002.86.422c.89 0 1.828-.14 2.813-.422a4.08 4.08 0 013.28 1.828 9.384 9.384 0 01-6.093 2.25zm7.594-3.938C18.094 15.985 16.312 15 14.297 15c-.469 0-1.219.469-2.672.469-1.5 0-2.25-.469-2.719-.469-2.015 0-3.797.984-4.922 2.438C2.86 15.938 2.25 14.063 2.25 12c0-5.156 4.172-9.375 9.375-9.375C16.781 2.625 21 6.844 21 12c0 2.063-.656 3.938-1.781 5.438z"/></svg>