<svg class="svg-sprites" id="skin-sprite" xmlns="http://www.w3.org/2000/svg" xmlns:xlink="http://www.w3.org/1999/xlink">
  <symbol viewBox="0 0 8 6" id="down"><path d="M4.072 4.959a.506.506 0 00.71 0l2.921-2.922c.215-.215.215-.537 0-.73L7.23.813a.532.532 0 00-.73 0L4.416 2.896 2.354.813a.532.532 0 00-.731 0l-.473.494c-.214.193-.214.515 0 .73L4.072 4.96z"/></symbol>
  <symbol viewBox="0 0 28 25" id="z-cart"><g clip-path="url(#clip0)"><path d="M.933-.001A.934.934 0 000 .937c0 .518.417.937.933.937h3.102c1.546 3.844 3.068 7.694 4.598 11.544l-1.409 3.41a.953.953 0 00.087.88.944.944 0 00.781.416h15.556c.491.006.945-.44.945-.938 0-.496-.454-.943-.945-.937H9.488l.807-1.934 14.983-1.2a.964.964 0 00.837-.722l1.866-8.125c.122-.547-.354-1.144-.914-1.144H6.543L5.532.587a.955.955 0 00-.865-.588H.933zm6.36 5h5.774v2.813H8.409L7.292 4.999zm7.64 0h3.734v2.813h-3.734V4.999zm5.6 0h5.358l-.641 2.813h-4.717V4.999zM9.16 9.687h3.908v2.528l-2.81.225L9.16 9.687zm5.774 0h3.734v2.08l-3.734.304V9.687zm5.6 0h4.278l-.37 1.621-3.908.313V9.687zM11.2 18.749c-1.708 0-3.111 1.41-3.111 3.125 0 1.716 1.403 3.125 3.111 3.125 1.708 0 3.111-1.41 3.111-3.125 0-1.716-1.403-3.125-3.111-3.125zm9.333 0c-1.708 0-3.11 1.41-3.11 3.125 0 1.716 1.402 3.125 3.11 3.125s3.111-1.41 3.111-3.125c0-1.716-1.403-3.125-3.11-3.125zM11.2 20.624c.697 0 1.244.55 1.244 1.25s-.547 1.25-1.244 1.25-1.244-.55-1.244-1.25.547-1.25 1.244-1.25zm9.333 0c.697 0 1.245.55 1.245 1.25s-.548 1.25-1.245 1.25c-.697 0-1.244-.55-1.244-1.25s.547-1.25 1.244-1.25z"/></g></symbol>
  <symbol viewBox="0 0 15 16" id="z-facebook"><path d="M13.281.188H1.594C.697.188 0 .917 0 1.78v11.69c0 .896.697 1.594 1.594 1.594h4.549v-5.047H4.05V7.625h2.092V5.832c0-2.059 1.228-3.22 3.087-3.22.93 0 1.86.165 1.86.165v2.026h-1.03c-1.029 0-1.36.63-1.36 1.295v1.527h2.29l-.365 2.39H8.699v5.047h4.582c.864 0 1.594-.697 1.594-1.593V1.78c0-.863-.73-1.593-1.594-1.593z"/></symbol>
  <symbol viewBox="0 0 16 16" id="z-instagram"><path d="M8.438 3.807a3.819 3.819 0 00-3.819 3.818 3.798 3.798 0 003.819 3.818 3.819 3.819 0 003.818-3.818c0-2.092-1.727-3.818-3.819-3.818zm0 6.308a2.487 2.487 0 01-2.49-2.49c0-1.361 1.095-2.457 2.49-2.457a2.451 2.451 0 012.457 2.457c0 1.395-1.096 2.49-2.457 2.49zm4.847-6.441a.893.893 0 00-.896-.897.893.893 0 00-.897.897c0 .498.399.896.897.896a.893.893 0 00.896-.896zm2.524.896c-.067-1.195-.332-2.258-1.196-3.12C13.75.585 12.688.32 11.493.253c-1.23-.067-4.915-.067-6.143 0C4.154.32 3.125.586 2.229 1.449c-.864.863-1.13 1.926-1.196 3.121-.066 1.229-.066 4.914 0 6.143.067 1.195.332 2.225 1.196 3.121.896.863 1.925 1.129 3.12 1.195 1.23.067 4.915.067 6.143 0 1.195-.066 2.258-.332 3.121-1.195.864-.896 1.13-1.926 1.196-3.121.066-1.229.066-4.914 0-6.143zm-1.594 7.438c-.233.664-.764 1.162-1.395 1.428-.996.398-3.32.298-4.383.298-1.095 0-3.42.1-4.382-.299a2.517 2.517 0 01-1.428-1.427c-.398-.963-.299-3.287-.299-4.383 0-1.063-.1-3.387.299-4.383a2.561 2.561 0 011.428-1.394c.963-.399 3.287-.3 4.383-.3 1.062 0 3.386-.099 4.382.3.631.232 1.13.763 1.395 1.394.398.996.299 3.32.299 4.383 0 1.096.1 3.42-.3 4.383z"/></symbol>
  <symbol viewBox="0 0 10 16" id="z-next"><path d="M10 8l-7.941 8L0 13.926 5.882 8 0 2.074 2.059 0 10 8z"/></symbol>
  <symbol viewBox="0 0 10 16" id="z-prev"><path d="M0 8l7.941-8L10 2.074 4.118 8 10 13.926 7.941 16 0 8z"/></symbol>
  <symbol viewBox="0 0 17 18" id="z-search"><path d="M11.571 7.929c0 2.48-2.019 4.5-4.5 4.5a4.505 4.505 0 01-4.5-4.5c0-2.481 2.02-4.5 4.5-4.5 2.481 0 4.5 2.019 4.5 4.5zm5.143 8.357c0-.342-.14-.673-.371-.904l-3.446-3.446a7.055 7.055 0 001.246-4.007A7.069 7.069 0 007.07.857 7.069 7.069 0 000 7.93 7.069 7.069 0 007.071 15a7.055 7.055 0 004.008-1.245l3.446 3.435c.23.24.562.381.904.381.703 0 1.285-.582 1.285-1.285z"/></symbol>
  <symbol viewBox="0 0 30 31" id="z-star"><g clip-path="url(#clip0)"><path d="M29.804 19.556L26.097 15.5l3.707-4.056a.74.74 0 00.158-.734.758.758 0 00-.565-.502l-5.42-1.135.58-5.427a.746.746 0 00-.31-.686.771.771 0 00-.757-.078l-5.06 2.22L15.66.375A.764.764 0 0015 0a.764.764 0 00-.66.375l-2.77 4.727-5.06-2.22a.772.772 0 00-.758.078.746.746 0 00-.31.686l.58 5.427-5.42 1.135a.757.757 0 00-.565.502.742.742 0 00.158.734L3.902 15.5.195 19.556a.742.742 0 00-.158.734c.084.255.3.446.566.502l5.418 1.134-.579 5.428a.745.745 0 00.31.686.769.769 0 00.757.078l5.061-2.22 2.77 4.727A.764.764 0 0015 31a.763.763 0 00.659-.375l2.77-4.727 5.06 2.22a.772.772 0 00.758-.078.746.746 0 00.31-.685l-.58-5.428 5.42-1.135a.757.757 0 00.565-.502.743.743 0 00-.158-.734zm-6.592.997a.758.758 0 00-.541.438.743.743 0 00-.256.643l.49 4.585-4.276-1.875a.77.77 0 00-.7.04.762.762 0 00-.59.372L15 28.75l-2.34-3.993a.762.762 0 00-.59-.372.77.77 0 00-.699-.04L7.096 26.22l.49-4.585a.744.744 0 00-.256-.643.758.758 0 00-.541-.438l-4.579-.959 3.132-3.426a.741.741 0 00.176-.668.741.741 0 00-.176-.668L2.21 11.407l4.578-.959a.758.758 0 00.541-.438.744.744 0 00.256-.642l-.49-4.586 4.276 1.875a.77.77 0 00.7-.04.761.761 0 00.59-.373L15 2.25l2.34 3.993a.76.76 0 00.59.372.77.77 0 00.699.041l4.275-1.875-.49 4.585a.744.744 0 00.256.643c.095.216.29.386.542.438l4.577.959-3.131 3.426a.742.742 0 00-.177.668c-.052.23.005.48.177.668l3.131 3.426-4.577.959z"/></g></symbol>
  <symbol viewBox="0 0 17 15" id="z-twitter"><path d="M15.24 4.172a7.383 7.383 0 001.727-1.793 6.535 6.535 0 01-1.992.531A3.406 3.406 0 0016.502.984a7.364 7.364 0 01-2.191.864A3.486 3.486 0 0011.753.752a3.486 3.486 0 00-3.486 3.486c0 .266.033.532.1.797a10.115 10.115 0 01-7.206-3.652 3.391 3.391 0 00-.465 1.76 3.43 3.43 0 001.56 2.888C1.694 5.998 1.13 5.865.665 5.6v.033a3.49 3.49 0 002.79 3.42 3.892 3.892 0 01-.897.133c-.233 0-.432-.034-.664-.067a3.47 3.47 0 003.253 2.424A7.01 7.01 0 01.83 13.037c-.299 0-.564-.033-.83-.066 1.527.996 3.354 1.56 5.346 1.56 6.408 0 9.894-5.279 9.894-9.894v-.465z"/></symbol>
  <symbol viewBox="0 0 24 24" id="z-user"><path d="M11.625 4.875a4.501 4.501 0 000 9 4.501 4.501 0 000-9zm0 6.75a2.221 2.221 0 01-2.25-2.25 2.25 2.25 0 012.25-2.25c1.219 0 2.25 1.031 2.25 2.25a2.25 2.25 0 01-2.25 2.25zm0-11.25C5.203.375 0 5.578 0 12s5.203 11.625 11.625 11.625S23.25 18.422 23.25 12 18.047.375 11.625.375zm0 21c-2.344 0-4.5-.844-6.14-2.25.702-1.078 1.921-1.828 3.28-1.828a10.32 10.32 0 002.86.422c.89 0 1.828-.14 2.813-.422a4.08 4.08 0 013.28 1.828 9.384 9.384 0 01-6.093 2.25zm7.594-3.938C18.094 15.985 16.312 15 14.297 15c-.469 0-1.219.469-2.672.469-1.5 0-2.25-.469-2.719-.469-2.015 0-3.797.984-4.922 2.438C2.86 15.938 2.25 14.063 2.25 12c0-5.156 4.172-9.375 9.375-9.375C16.781 2.625 21 6.844 21 12c0 2.063-.656 3.938-1.781 5.438z"/></symbol>
  <symbol viewBox="0 0 24 24" fill-rule="evenodd" clip-rule="evenodd" stroke-linejoin="round" stroke-miterlimit="2" id="z-lock"><path d="M7.125 8.625h-.75a2.75 2.75 0 00-2.75 2.75V17.5a2.75 2.75 0 002.75 2.75h12.25a2.75 2.75 0 002.75-2.75v-6.125a2.75 2.75 0 00-2.75-2.75h-.75v-2.5a5.375 5.375 0 00-9.176-3.801 5.375 5.375 0 00-1.574 3.801v2.5zm11.5 2a.75.75 0 01.75.75V17.5a.75.75 0 01-.75.75H6.375a.75.75 0 01-.75-.75v-6.125a.75.75 0 01.75-.75h12.25zm-2.75-2v-2.5a3.376 3.376 0 00-6.75 0v2.5h6.75z"/></symbol>
  <symbol viewBox="0 0 24 24" fill-rule="evenodd" clip-rule="evenodd" stroke-linejoin="round" stroke-miterlimit="2" id="z-truck"><path d="M2.337 17a3.5 3.5 0 106.326 0h6.674a3.5 3.5 0 106.326 0H23a1 1 0 001-1v-5a.997.997 0 00-.293-.707l-3-3A.997.997 0 0020 7h-3V3a1 1 0 00-1-1H1a1 1 0 00-1 1v13a1 1 0 001 1h1.337zM5.5 20a1.5 1.5 0 11.001-3.001A1.5 1.5 0 015.5 20zm13 0a1.5 1.5 0 11.001-3.001A1.5 1.5 0 0118.5 20zM17 9h2.586L22 11.414V15h-5V9zm-2-5v11H2V4h13z"/></symbol>
  <symbol viewBox="0 0 24 24" fill-rule="evenodd" clip-rule="evenodd" stroke-linejoin="round" stroke-miterlimit="2" id="z-card"><path d="M21 3H3a3 3 0 00-3 3v12a3 3 0 003 3h18a3 3 0 003-3V6a3 3 0 00-3-3zm1 8v7a1 1 0 01-1 1H3a1 1 0 01-1-1v-7h20zm0-2H2V6a1 1 0 011-1h18a1 1 0 011 1v3z"/></symbol>
</svg>